<svg width="227" height="43" viewBox="0 0 227 43" fill="none" xmlns="http://www.w3.org/2000/svg">
<g clip-path="url(#clip0_1_6)">
<path d="M28.9922 32.4297C28.9922 36.3516 27.0938 39.3906 23.2969 41.5469C21.4219 42.6094 19.0078 43.1406 16.0547 43.1406C15.1172 43.1406 14.3438 43.1328 13.7344 43.1172L8.13281 43C6.13281 43 4.58594 43.0469 3.49219 43.1406L3.25781 42.9062V42.25L3.375 41.9688C4.53125 41.2344 5.15625 40.7734 5.25 40.5859C5.39062 40.3047 5.47656 39.2656 5.50781 37.4688L5.57812 32.2188V20.3359C5.57812 16.6172 5.47656 14.1953 5.27344 13.0703C5.19531 12.6172 4.92969 12.3281 4.47656 12.2031C4.24219 12.1406 3.32812 12.0625 1.73438 11.9688L1.5 11.7344V10.1406L1.73438 9.92969C3.125 10.0234 5.51562 10.0703 8.90625 10.0703C11.0625 10.0703 13.0078 10.0312 14.7422 9.95312C16.1172 9.89062 17.2812 9.85938 18.2344 9.85938C22.5938 9.85938 25.4531 10.8516 26.8125 12.8359C27.5312 13.8828 27.8906 15.0859 27.8906 16.4453C27.8906 18.6641 27.0234 20.5156 25.2891 22C24.4609 22.7031 23.6016 23.2266 22.7109 23.5703C21.6797 23.9609 20.5547 24.2969 19.3359 24.5781C25.7734 24.8594 28.9922 27.4766 28.9922 32.4297ZM20.8125 17.5938C20.8125 14.1406 19.0156 12.4141 15.4219 12.4141C14.2344 12.4141 13.2266 12.4766 12.3984 12.6016C12.3359 14.2422 12.3047 15.7578 12.3047 17.1484V23.6172C12.6641 23.6484 13.3828 23.6641 14.4609 23.6641C17.2891 23.6641 19.1484 22.7578 20.0391 20.9453C20.5547 19.8984 20.8125 18.7812 20.8125 17.5938ZM21.8203 33.1562C21.8203 28.4688 19.3594 26.125 14.4375 26.125C13.8125 26.125 13.1016 26.1484 12.3047 26.1953V37.0469C12.3047 38.2188 12.3359 39.3672 12.3984 40.4922C13.0391 40.6016 13.9375 40.6562 15.0938 40.6562C17.2812 40.6562 18.9688 39.9688 20.1562 38.5938C21.2656 37.2812 21.8203 35.4688 21.8203 33.1562ZM46.3828 42.9297L46.1484 43.1641C44.6641 43.0547 42.5234 43 39.7266 43C36.9297 43 34.7969 43.0547 33.3281 43.1641L33.0938 42.9297V41.5L33.3281 41.2656C34.8281 41.2188 35.7578 41.1016 36.1172 40.9141C36.4297 40.7734 36.6016 40.3984 36.6328 39.7891C36.7422 37.7578 36.7969 34.2031 36.7969 29.125V21.2734C36.7969 17.9922 36.7422 15.3359 36.6328 13.3047C36.6016 12.7266 36.4297 12.3516 36.1172 12.1797C35.8047 11.9922 34.8984 11.875 33.3984 11.8281L33.1641 11.5703V10.2812L33.3984 10.0234C36.4141 9.69531 39.4375 9.04687 42.4688 8.07812L42.9609 8.35938C42.9609 8.78125 42.9375 9.55469 42.8906 10.6797C42.7344 14.4141 42.6562 18.5469 42.6562 23.0781V29.125C42.6562 34.2031 42.7109 37.7578 42.8203 39.7891C42.8516 40.3984 43.0234 40.7734 43.3359 40.9141C43.6953 41.1016 44.625 41.2188 46.125 41.2656L46.3828 41.5V42.9297ZM59.1328 12.3438C59.1328 13.3438 58.7812 14.2031 58.0781 14.9219C57.375 15.625 56.5312 15.9766 55.5469 15.9766C54.5469 15.9766 53.6953 15.625 52.9922 14.9219C52.2891 14.2031 51.9375 13.3438 51.9375 12.3438C51.9375 11.3125 52.2891 10.4453 52.9922 9.74219C53.7109 9.03906 54.5625 8.6875 55.5469 8.6875C56.5156 8.6875 57.3516 9.03906 58.0547 9.74219C58.7734 10.4453 59.1328 11.3125 59.1328 12.3438ZM62.3672 42.9297L62.1328 43.1641C60.6484 43.0547 58.5078 43 55.7109 43C52.9141 43 50.7812 43.0547 49.3125 43.1641L49.0781 42.9297V41.5L49.3125 41.2656C50.8125 41.2188 51.7422 41.1016 52.1016 40.9141C52.4141 40.7734 52.5859 40.3984 52.6172 39.7891C52.7266 37.7578 52.7812 35.5781 52.7812 33.25V29.8984C52.7812 26.8672 52.6641 25.0703 52.4297 24.5078C52.3047 24.1953 51.9688 24 51.4219 23.9219C51.2344 23.8906 50.5547 23.8516 49.3828 23.8047L49.1484 23.5703V22.2578L49.3828 22C52.3828 21.7344 55.4062 21.0859 58.4531 20.0547L58.9453 20.3594C58.7422 23.2031 58.6406 25.6016 58.6406 27.5547V35.0312C58.6406 36.1719 58.6953 37.7578 58.8047 39.7891C58.8359 40.3984 59.0078 40.7734 59.3203 40.9141C59.6797 41.1016 60.6094 41.2188 62.1094 41.2656L62.3672 41.5V42.9297ZM79.3125 39.9297C79.2031 40.0547 78.8672 40.3828 78.3047 40.9141C77.3828 41.7891 76.5938 42.5859 75.9375 43.3047C75.1719 43.5547 74.3984 43.6797 73.6172 43.6797C71.4453 43.6797 69.8594 43.0469 68.8594 41.7812C68.4375 41.2344 68.1562 40.6016 68.0156 39.8828C67.8594 39.0234 67.7891 37.8984 67.8047 36.5078L67.875 30.9062V25.0469H67.2422L66 25.0938H65.0391L64.7812 24.8828V24.2734L64.9688 23.9219C65.25 23.7344 65.6875 23.4531 66.2812 23.0781C66.9844 22.6406 67.5156 22.2734 67.875 21.9766V18.7891C67.875 17.4609 67.8125 16.0547 67.6875 14.5703C68.8594 14.1953 69.8047 13.8672 70.5234 13.5859C71.2578 13.2891 72.2891 12.8125 73.6172 12.1562L74.2266 12.625C74.0391 14.5625 73.9062 16.2969 73.8281 17.8281L73.6172 21.8828H74.3906C76.0938 21.8828 77.5625 21.8281 78.7969 21.7188L79.0547 21.9766L78.7266 24.7188L78.4922 24.9531H73.6172V32.8984C73.6172 35.4453 73.6484 36.9453 73.7109 37.3984C73.7891 38.0547 74.0625 38.5859 74.5312 38.9922C75.0156 39.3984 75.6641 39.6016 76.4766 39.6016C77.1172 39.6016 77.8906 39.4297 78.7969 39.0859L79.3125 39.9297Z" fill="#232222"/>
<path d="M132.992 32.4297C132.992 36.3516 131.094 39.3906 127.297 41.5469C125.422 42.6094 123.008 43.1406 120.055 43.1406C119.117 43.1406 118.344 43.1328 117.734 43.1172L112.133 43C110.133 43 108.586 43.0469 107.492 43.1406L107.258 42.9062V42.25L107.375 41.9688C108.531 41.2344 109.156 40.7734 109.25 40.5859C109.391 40.3047 109.477 39.2656 109.508 37.4688L109.578 32.2188V20.3359C109.578 16.6172 109.477 14.1953 109.273 13.0703C109.195 12.6172 108.93 12.3281 108.477 12.2031C108.242 12.1406 107.328 12.0625 105.734 11.9688L105.5 11.7344V10.1406L105.734 9.92969C107.125 10.0234 109.516 10.0703 112.906 10.0703C115.062 10.0703 117.008 10.0312 118.742 9.95312C120.117 9.89062 121.281 9.85938 122.234 9.85938C126.594 9.85938 129.453 10.8516 130.812 12.8359C131.531 13.8828 131.891 15.0859 131.891 16.4453C131.891 18.6641 131.023 20.5156 129.289 22C128.461 22.7031 127.602 23.2266 126.711 23.5703C125.68 23.9609 124.555 24.2969 123.336 24.5781C129.773 24.8594 132.992 27.4766 132.992 32.4297ZM124.812 17.5938C124.812 14.1406 123.016 12.4141 119.422 12.4141C118.234 12.4141 117.227 12.4766 116.398 12.6016C116.336 14.2422 116.305 15.7578 116.305 17.1484V23.6172C116.664 23.6484 117.383 23.6641 118.461 23.6641C121.289 23.6641 123.148 22.7578 124.039 20.9453C124.555 19.8984 124.812 18.7812 124.812 17.5938ZM125.82 33.1562C125.82 28.4688 123.359 26.125 118.438 26.125C117.812 26.125 117.102 26.1484 116.305 26.1953V37.0469C116.305 38.2188 116.336 39.3672 116.398 40.4922C117.039 40.6016 117.938 40.6562 119.094 40.6562C121.281 40.6562 122.969 39.9688 124.156 38.5938C125.266 37.2812 125.82 35.4688 125.82 33.1562ZM150.383 42.9297L150.148 43.1641C148.664 43.0547 146.523 43 143.727 43C140.93 43 138.797 43.0547 137.328 43.1641L137.094 42.9297V41.5L137.328 41.2656C138.828 41.2188 139.758 41.1016 140.117 40.9141C140.43 40.7734 140.602 40.3984 140.633 39.7891C140.742 37.7578 140.797 34.2031 140.797 29.125V21.2734C140.797 17.9922 140.742 15.3359 140.633 13.3047C140.602 12.7266 140.43 12.3516 140.117 12.1797C139.805 11.9922 138.898 11.875 137.398 11.8281L137.164 11.5703V10.2812L137.398 10.0234C140.414 9.69531 143.438 9.04687 146.469 8.07812L146.961 8.35938C146.961 8.78125 146.938 9.55469 146.891 10.6797C146.734 14.4141 146.656 18.5469 146.656 23.0781V29.125C146.656 34.2031 146.711 37.7578 146.82 39.7891C146.852 40.3984 147.023 40.7734 147.336 40.9141C147.695 41.1016 148.625 41.2188 150.125 41.2656L150.383 41.5V42.9297ZM163.133 12.3438C163.133 13.3438 162.781 14.2031 162.078 14.9219C161.375 15.625 160.531 15.9766 159.547 15.9766C158.547 15.9766 157.695 15.625 156.992 14.9219C156.289 14.2031 155.938 13.3438 155.938 12.3438C155.938 11.3125 156.289 10.4453 156.992 9.74219C157.711 9.03906 158.562 8.6875 159.547 8.6875C160.516 8.6875 161.352 9.03906 162.055 9.74219C162.773 10.4453 163.133 11.3125 163.133 12.3438ZM166.367 42.9297L166.133 43.1641C164.648 43.0547 162.508 43 159.711 43C156.914 43 154.781 43.0547 153.312 43.1641L153.078 42.9297V41.5L153.312 41.2656C154.812 41.2188 155.742 41.1016 156.102 40.9141C156.414 40.7734 156.586 40.3984 156.617 39.7891C156.727 37.7578 156.781 35.5781 156.781 33.25V29.8984C156.781 26.8672 156.664 25.0703 156.43 24.5078C156.305 24.1953 155.969 24 155.422 23.9219C155.234 23.8906 154.555 23.8516 153.383 23.8047L153.148 23.5703V22.2578L153.383 22C156.383 21.7344 159.406 21.0859 162.453 20.0547L162.945 20.3594C162.742 23.2031 162.641 25.6016 162.641 27.5547V35.0312C162.641 36.1719 162.695 37.7578 162.805 39.7891C162.836 40.3984 163.008 40.7734 163.32 40.9141C163.68 41.1016 164.609 41.2188 166.109 41.2656L166.367 41.5V42.9297ZM196.016 42.9062L195.781 43.1641C194.062 43.0547 192.609 43 191.422 43C190.328 43 188.734 43.0547 186.641 43.1641L186.406 42.9297C186.688 39.4453 186.828 36.7578 186.828 34.8672V30.2734C186.828 26.4609 185.453 24.5547 182.703 24.5547C181.266 24.5547 180.141 25.0469 179.328 26.0312C178.641 26.8594 178.297 27.6953 178.297 28.5391V32.9219C178.297 36.9688 178.398 39.4531 178.602 40.375C178.727 40.9219 179.633 41.2109 181.32 41.2422L181.555 41.4766V42.9062L181.32 43.1406C179.992 43.0469 178.008 43 175.367 43C172.57 43 170.438 43.0547 168.969 43.1641L168.734 42.9297V41.5L168.969 41.2656C170.469 41.2188 171.398 41.1016 171.758 40.9141C172.07 40.7734 172.242 40.3984 172.273 39.7891C172.383 37.7578 172.438 35.5781 172.438 33.25V29.8984C172.438 26.7734 172.32 24.9766 172.086 24.5078C171.93 24.1953 171.594 24 171.078 23.9219C170.891 23.8906 170.211 23.8516 169.039 23.8047L168.805 23.5703V22.2578L169.039 22C171.852 21.7344 174.812 21.0859 177.922 20.0547L178.438 20.3594L178.391 24.2969L182.422 20.9219C183.453 20.5 184.586 20.2891 185.82 20.2891C188.305 20.2891 190.164 21.0391 191.398 22.5391C192.398 23.7578 192.898 25.5469 192.898 27.9062C192.898 28.1719 192.867 29.2578 192.805 31.1641C192.742 33.0703 192.711 34.4297 192.711 35.2422C192.711 37.6016 192.75 39.1094 192.828 39.7656C192.906 40.4062 193.086 40.8125 193.367 40.9844C193.648 41.1562 194.461 41.2578 195.805 41.2891L196.016 41.5234V42.9062ZM225.875 42.9297L225.641 43.1641C224.594 43.1016 223.32 43.0703 221.82 43.0703C220.43 43.0703 219.055 43.1016 217.695 43.1641C216.82 41.5703 214.703 38.9219 211.344 35.2188C209.578 33.2656 208.453 32.1172 207.969 31.7734L208.133 39.7891C208.164 40.3984 208.336 40.7734 208.648 40.9141C209.008 41.1016 209.938 41.2188 211.438 41.2656L211.695 41.5V42.9297L211.461 43.1641C209.977 43.0547 207.836 43 205.039 43C202.242 43 200.109 43.0547 198.641 43.1641L198.406 42.9297V41.5L198.641 41.2656C200.141 41.2188 201.07 41.1016 201.43 40.9141C201.742 40.7734 201.914 40.3984 201.945 39.7891C202.055 37.7578 202.109 34.2031 202.109 29.125V21.2734C202.109 17.9922 202.055 15.3359 201.945 13.3047C201.914 12.7266 201.742 12.3516 201.43 12.1797C201.117 11.9922 200.211 11.875 198.711 11.8281L198.477 11.5703V10.2812L198.711 10.0234C201.727 9.69531 204.75 9.04687 207.781 8.07812L208.273 8.35938C208.273 8.78125 208.25 9.55469 208.203 10.6797C208.047 14.4141 207.969 18.5469 207.969 23.0781V30.7422L210.289 28.8438C211.305 28.0156 212.727 26.6328 214.555 24.6953L216.992 22.1172C217.445 21.6328 217.805 21.2109 218.07 20.8516C219.398 20.8984 220.477 20.9219 221.305 20.9219C222.352 20.9219 223.297 20.8984 224.141 20.8516L224.375 21.0859V22.4922L224.141 22.7266L222.43 22.8203C221.742 22.8516 221.031 23.125 220.297 23.6406C220.016 23.8438 219.422 24.3125 218.516 25.0469L216.547 26.6641L215.844 27.3203L213.852 29.1016L218.867 34.9609C222.055 38.6797 223.969 40.6953 224.609 41.0078C224.938 41.1641 225.281 41.2422 225.641 41.2422L225.875 41.5V42.9297Z" fill="#232222"/>
<path d="M100.961 24.9405C100.913 25.9982 100.316 27.0917 99.3628 27.8653L90.2052 35.2995L105.549 41.6728C105.834 41.7909 105.944 42.1133 105.807 42.4256C105.669 42.7397 105.326 42.9448 105.008 42.9069L81.9945 40.2187C81.9722 40.2163 81.9503 40.212 81.928 40.2073C80.8152 39.951 80.1177 39.0895 80.1066 37.9648C80.0839 36.8629 80.6884 35.7029 81.7237 34.8625L91.4915 26.9329L77.9624 18.8271C77.6947 18.6668 77.6369 18.3117 77.828 18.0076C77.8764 17.9312 77.9409 17.8591 78.0122 17.8013C78.4028 17.4842 78.6854 17.2547 99.4976 22.6173C100.462 22.9764 101.023 23.8691 100.961 24.9405Z" fill="#107F4C"/>
</g>
<defs>
<clipPath id="clip0_1_6">
<rect width="227" height="43" fill="white"/>
</clipPath>
</defs>
</svg>
